<mxfile host="app.diagrams.net" modified="2024-03-13T01:13:31.312Z" agent="Mozilla/5.0 (Windows NT 10.0; Win64; x64) AppleWebKit/537.36 (KHTML, like Gecko) Chrome/122.0.0.0 Safari/537.36" etag="UnmQzaj7amu89Yl25uZg" version="24.0.5" type="github">
  <diagram id="C5RBs43oDa-KdzZeNtuy" name="Page-1">
    <mxGraphModel dx="1318" dy="591" grid="1" gridSize="10" guides="1" tooltips="1" connect="1" arrows="1" fold="1" page="1" pageScale="1" pageWidth="827" pageHeight="1169" math="0" shadow="0">
      <root>
        <mxCell id="WIyWlLk6GJQsqaUBKTNV-0" />
        <mxCell id="WIyWlLk6GJQsqaUBKTNV-1" parent="WIyWlLk6GJQsqaUBKTNV-0" />
        <mxCell id="WIyWlLk6GJQsqaUBKTNV-2" value="" style="rounded=0;html=1;jettySize=auto;orthogonalLoop=1;fontSize=11;endArrow=block;endFill=0;endSize=8;strokeWidth=1;shadow=0;labelBackgroundColor=none;edgeStyle=orthogonalEdgeStyle;" parent="WIyWlLk6GJQsqaUBKTNV-1" target="WIyWlLk6GJQsqaUBKTNV-6" edge="1">
          <mxGeometry relative="1" as="geometry">
            <mxPoint x="170" y="200" as="sourcePoint" />
          </mxGeometry>
        </mxCell>
        <mxCell id="jZzAngPxfolf5dMAniI4-4" style="edgeStyle=orthogonalEdgeStyle;rounded=0;orthogonalLoop=1;jettySize=auto;html=1;" edge="1" parent="WIyWlLk6GJQsqaUBKTNV-1" source="WIyWlLk6GJQsqaUBKTNV-6" target="WIyWlLk6GJQsqaUBKTNV-7">
          <mxGeometry relative="1" as="geometry" />
        </mxCell>
        <mxCell id="WIyWlLk6GJQsqaUBKTNV-6" value="FAZ" style="rhombus;whiteSpace=wrap;html=1;shadow=0;fontFamily=Helvetica;fontSize=12;align=center;strokeWidth=1;spacing=6;spacingTop=-4;" parent="WIyWlLk6GJQsqaUBKTNV-1" vertex="1">
          <mxGeometry x="230" y="170" width="50" height="60" as="geometry" />
        </mxCell>
        <mxCell id="jZzAngPxfolf5dMAniI4-6" style="edgeStyle=orthogonalEdgeStyle;rounded=0;orthogonalLoop=1;jettySize=auto;html=1;" edge="1" parent="WIyWlLk6GJQsqaUBKTNV-1" source="WIyWlLk6GJQsqaUBKTNV-7" target="jZzAngPxfolf5dMAniI4-5">
          <mxGeometry relative="1" as="geometry" />
        </mxCell>
        <mxCell id="WIyWlLk6GJQsqaUBKTNV-7" value="Registrar o historico de glicemia" style="rounded=1;whiteSpace=wrap;html=1;fontSize=12;glass=0;strokeWidth=1;shadow=0;" parent="WIyWlLk6GJQsqaUBKTNV-1" vertex="1">
          <mxGeometry x="320" y="180" width="120" height="40" as="geometry" />
        </mxCell>
        <mxCell id="jZzAngPxfolf5dMAniI4-36" value="" style="edgeStyle=orthogonalEdgeStyle;rounded=0;orthogonalLoop=1;jettySize=auto;html=1;" edge="1" parent="WIyWlLk6GJQsqaUBKTNV-1" source="jZzAngPxfolf5dMAniI4-3" target="jZzAngPxfolf5dMAniI4-14">
          <mxGeometry relative="1" as="geometry" />
        </mxCell>
        <mxCell id="jZzAngPxfolf5dMAniI4-3" value="Dispositivo" style="ellipse;whiteSpace=wrap;html=1;" vertex="1" parent="WIyWlLk6GJQsqaUBKTNV-1">
          <mxGeometry x="100" y="170" width="80" height="50" as="geometry" />
        </mxCell>
        <mxCell id="jZzAngPxfolf5dMAniI4-8" style="edgeStyle=orthogonalEdgeStyle;rounded=0;orthogonalLoop=1;jettySize=auto;html=1;entryX=0.5;entryY=0;entryDx=0;entryDy=0;" edge="1" parent="WIyWlLk6GJQsqaUBKTNV-1" source="jZzAngPxfolf5dMAniI4-5" target="jZzAngPxfolf5dMAniI4-7">
          <mxGeometry relative="1" as="geometry" />
        </mxCell>
        <mxCell id="jZzAngPxfolf5dMAniI4-37" style="edgeStyle=orthogonalEdgeStyle;rounded=0;orthogonalLoop=1;jettySize=auto;html=1;" edge="1" parent="WIyWlLk6GJQsqaUBKTNV-1" source="jZzAngPxfolf5dMAniI4-5" target="jZzAngPxfolf5dMAniI4-21">
          <mxGeometry relative="1" as="geometry" />
        </mxCell>
        <mxCell id="jZzAngPxfolf5dMAniI4-5" value="analisa&amp;nbsp;" style="rhombus;whiteSpace=wrap;html=1;" vertex="1" parent="WIyWlLk6GJQsqaUBKTNV-1">
          <mxGeometry x="347" y="250" width="66" height="60" as="geometry" />
        </mxCell>
        <mxCell id="jZzAngPxfolf5dMAniI4-7" value="Mostra o nível de glicemia para o usuário, através do dispositivo" style="rounded=1;whiteSpace=wrap;html=1;" vertex="1" parent="WIyWlLk6GJQsqaUBKTNV-1">
          <mxGeometry x="300" y="330" width="160" height="50" as="geometry" />
        </mxCell>
        <mxCell id="jZzAngPxfolf5dMAniI4-29" value="" style="edgeStyle=orthogonalEdgeStyle;rounded=0;orthogonalLoop=1;jettySize=auto;html=1;" edge="1" parent="WIyWlLk6GJQsqaUBKTNV-1" source="jZzAngPxfolf5dMAniI4-10" target="jZzAngPxfolf5dMAniI4-28">
          <mxGeometry relative="1" as="geometry" />
        </mxCell>
        <mxCell id="jZzAngPxfolf5dMAniI4-10" value="Botão de emergência&lt;div&gt;para uso manual&lt;/div&gt;" style="rounded=1;whiteSpace=wrap;html=1;" vertex="1" parent="WIyWlLk6GJQsqaUBKTNV-1">
          <mxGeometry x="630" y="370" width="120" height="60" as="geometry" />
        </mxCell>
        <mxCell id="jZzAngPxfolf5dMAniI4-11" value="Injeta a insulina de acordo com a dose recomendado pelo médico" style="whiteSpace=wrap;html=1;rounded=1;" vertex="1" parent="WIyWlLk6GJQsqaUBKTNV-1">
          <mxGeometry x="305" y="550" width="150" height="60" as="geometry" />
        </mxCell>
        <mxCell id="jZzAngPxfolf5dMAniI4-14" value="Baterias reservas para caso de falha&amp;nbsp;" style="rounded=0;whiteSpace=wrap;html=1;" vertex="1" parent="WIyWlLk6GJQsqaUBKTNV-1">
          <mxGeometry x="80" y="300" width="120" height="60" as="geometry" />
        </mxCell>
        <mxCell id="jZzAngPxfolf5dMAniI4-17" value="De acordo com as&amp;nbsp; informações da &quot;OMS&quot; e orientações médicas&amp;nbsp;" style="whiteSpace=wrap;html=1;rounded=1;" vertex="1" parent="WIyWlLk6GJQsqaUBKTNV-1">
          <mxGeometry x="615" y="540" width="150" height="80" as="geometry" />
        </mxCell>
        <mxCell id="jZzAngPxfolf5dMAniI4-23" value="" style="edgeStyle=orthogonalEdgeStyle;rounded=0;orthogonalLoop=1;jettySize=auto;html=1;" edge="1" parent="WIyWlLk6GJQsqaUBKTNV-1" source="jZzAngPxfolf5dMAniI4-21" target="jZzAngPxfolf5dMAniI4-10">
          <mxGeometry relative="1" as="geometry" />
        </mxCell>
        <mxCell id="jZzAngPxfolf5dMAniI4-21" value="Em caso de ERRO" style="rhombus;whiteSpace=wrap;html=1;rounded=1;" vertex="1" parent="WIyWlLk6GJQsqaUBKTNV-1">
          <mxGeometry x="645" y="237.5" width="90" height="85" as="geometry" />
        </mxCell>
        <mxCell id="jZzAngPxfolf5dMAniI4-30" style="edgeStyle=orthogonalEdgeStyle;rounded=0;orthogonalLoop=1;jettySize=auto;html=1;" edge="1" parent="WIyWlLk6GJQsqaUBKTNV-1" source="jZzAngPxfolf5dMAniI4-28" target="jZzAngPxfolf5dMAniI4-17">
          <mxGeometry relative="1" as="geometry" />
        </mxCell>
        <mxCell id="jZzAngPxfolf5dMAniI4-28" value="Injeta" style="rhombus;whiteSpace=wrap;html=1;" vertex="1" parent="WIyWlLk6GJQsqaUBKTNV-1">
          <mxGeometry x="645" y="465" width="90" height="50" as="geometry" />
        </mxCell>
        <mxCell id="jZzAngPxfolf5dMAniI4-33" value="" style="edgeStyle=orthogonalEdgeStyle;rounded=0;orthogonalLoop=1;jettySize=auto;html=1;" edge="1" parent="WIyWlLk6GJQsqaUBKTNV-1" source="jZzAngPxfolf5dMAniI4-32" target="jZzAngPxfolf5dMAniI4-7">
          <mxGeometry relative="1" as="geometry" />
        </mxCell>
        <mxCell id="jZzAngPxfolf5dMAniI4-34" value="" style="edgeStyle=orthogonalEdgeStyle;rounded=0;orthogonalLoop=1;jettySize=auto;html=1;" edge="1" parent="WIyWlLk6GJQsqaUBKTNV-1" source="jZzAngPxfolf5dMAniI4-32" target="jZzAngPxfolf5dMAniI4-11">
          <mxGeometry relative="1" as="geometry" />
        </mxCell>
        <mxCell id="jZzAngPxfolf5dMAniI4-32" value="Em caso de não ter error de funcionalidade&amp;nbsp;" style="rhombus;whiteSpace=wrap;html=1;" vertex="1" parent="WIyWlLk6GJQsqaUBKTNV-1">
          <mxGeometry x="320" y="405" width="120" height="110" as="geometry" />
        </mxCell>
      </root>
    </mxGraphModel>
  </diagram>
</mxfile>
